PathFileType	4	(X/Y/Z)	C:/Users/beibeiliu/ov580/test_trc/User3\sequence.38_training_dense_right.trc
DataRate	CameraRate	NumFrames	NumMarkers	Units	OrigDataRate	OrigDataStartFrame	OrigNumFrames
120	120	8	19	mm	120	196	260
Frame#	Time	ThumbCMC			ThumbMCP			ThumbIP			ThumbTip			IndexMCP			IndexPIP			IndexTip			MiddleMCP			MiddlePIP			MiddleTip			RingMCP			RingPIP			RingTip			PinkyMCP			PinkyPIP			PinkyTip			BackHand1			BackHand2			BackHand3	
		X0	Y0	Z0	X1	Y1	Z1	X2	Y2	Z2	X3	Y3	Z3	X4	Y4	Z4	X5	Y5	Z5	X6	Y6	Z6	X7	Y7	Z7	X8	Y8	Z8	X9	Y9	Z9	X10	Y10	Z10	X11	Y11	Z11	X12	Y12	Z12	X13	Y13	Z13	X14	Y14	Z14	X15	Y15	Z15	X16	Y16	Z16	X17	Y17	Z17	X18	Y18	Z18	
195	1.625	148.449	-5.86586	23.7568	141.615	8.0782	-1.42898	137.605	21.6267	-26.5787	125.616	23.7044	-49.9548	142.04	-21.0695	-53.9405	117.964	-8.06738	-67.8312	105.344	4.26234	-36.7913	126.535	-34.739	-54.6295	94.8749	-17.6007	-55.1627	98.4263	-14.0805	-19.0211	109.209	-48.7732	-46.8035	84.6069	-32.0357	-40.7364	94.6525	-25.5285	-8.29216	104.719	-62.0905	-32.0307	85.3692	-42.5862	-34.2783	88.2006	-36.6292	-8.59949	143.615	-67.3824	1.20366	146.633	-67.7698	33.7418	161.482	-40.7049	16.505	
196	1.63333	150.062	-9.28227	25.6124	151.036	2.93857	-3.28085	151.233	13.7979	-32.4827	145.919	20.9244	-53.4846	140.035	-20.6086	-53.5473	111.919	-4.2154	-62.0022	104.897	3.17991	-31.7405	122.086	-34.1264	-56.0662	95.3769	-18.4717	-55.2983	99.7122	-10.5523	-17.1085	109.341	-49.1056	-44.6032	87.1536	-29.8291	-44.6027	93.531	-21.6425	-10.4924	102.691	-60.9741	-31.784	82.7598	-43.2335	-34.2555	87.8338	-36.7283	-5.55999	139.431	-69.2254	1.74072	144.223	-70.6072	32.5602	161.486	-39.1083	12.5332	
197	1.64167	155.162	-7.33185	24.1701	155.945	-0.748535	-5.51586	157.926	7.49271	-31.4567	154.708	10.8089	-57.574	139.452	-20.7032	-52.6089	112.519	-4.24466	-62.291	109.354	5.10204	-27.8239	119.22	-35.3733	-55.1627	96.1554	-11.4492	-51.7648	101.569	-10.5467	-14.912	108.638	-47.4843	-44.6818	86.2238	-26.9507	-42.1981	94.9454	-23.6392	-8.44868	101.027	-60.922	-31.5345	81.5486	-42.1981	-33.1913	90.0941	-32.9257	-3.85355	138.903	-67.248	2.77505	141.099	-67.7852	30.0389	158.75	-41.863	14.8089	
198	1.65	155.533	-7.45836	19.3537	155.002	-1.74897	-5.40145	156.812	2.0124	-37.168	153.368	5.79814	-58.221	135.326	-20.0031	-55.9549	112.663	1.04179	-60.9427	109.571	3.46078	-26.2604	119.603	-36.7169	-52.7029	93.9024	-15.7789	-53.3257	103.028	-11.0986	-14.2056	104.422	-47.8541	-46.45	82.7519	-29.6188	-39.942	97.3914	-21.0228	-8.8402	97.6394	-60.4778	-34.7723	79.506	-40.0823	-32.1104	90.6654	-33.7313	-2.85927	137.191	-68.8748	3.78614	141.021	-66.3866	31.7474	159.596	-42.127	10.2908	
199	1.65833	150.37	-9.19238	22.871	152.374	0.252576	-4.39749	151.769	6.08495	-35.8896	142.849	1.93541	-59.1348	135.287	-24.6259	-53.7082	110.314	-2.60302	-60.4579	110.796	5.00156	-28.3259	120.762	-35.3683	-54.3541	93.3991	-14.1833	-50.5898	103.675	-15.1639	-12.1484	106.101	-47.0786	-45.863	84.46	-27.0451	-39.3743	96.1177	-24.2356	-8.89015	96.826	-64.1276	-30.2101	80.8522	-39.413	-32.3538	90.3897	-36.6786	-2.26334	138.457	-65.3094	2.83797	141.016	-67.7852	31.3323	162.118	-39.6158	14.0638	
200	1.66667	149.611	-7.49385	22.8397	146.654	3.72979	-5.69922	141.115	9.52909	-38.079	129.878	6.8117	-56.1741	135.362	-27.0539	-52.6014	109.595	-3.7485	-62.6526	108.985	5.54083	-31.6378	115.227	-37.7372	-57.0881	94.0327	-15.1077	-55.6486	101.229	-17.4838	-14.126	106.077	-45.7572	-47.0768	82.4288	-28.083	-36.9186	96.9547	-24.6325	-9.30709	97.9791	-61.7338	-32.8458	79.5663	-42.5311	-31.4774	86.7005	-37.706	-1.62441	136.774	-68.3655	-1.34285	140.46	-69.8896	29.869	158.637	-44.1759	9.0212	
201	1.675	146.717	-4.23849	23.2552	138.458	8.84524	-9.81888	129.724	13.3515	-36.7602	116.019	12.1208	-55.3687	134.133	-26.0181	-54.1206	111.247	-10.03	-67.0732	104.604	3.96443	-34.0759	120.623	-35.8543	-56.6873	94.2964	-18.6626	-57.5028	98.1663	-16.2502	-15.5801	105.276	-51.7321	-45.358	81.4394	-34.4263	-39.1313	92.7954	-28.6892	-8.68929	98.7862	-65.0664	-32.1774	77.0062	-47.6374	-32.9068	87.0433	-40.0171	-3.23665	138.722	-68.016	2.88604	143.86	-66.8308	28.8514	159.943	-41.091	9.40779	
202	1.68333	142.577	-2.8849	20.3728	130.039	9.28386	0.137592	119.707	18.9212	-29.4942	105.463	20.1482	-52.6081	137.373	-19.7067	-55.6624	114.034	-5.11669	-69.4717	99.5838	4.00633	-37.7219	121.669	-32.2196	-57.8042	95.4096	-15.9523	-60.2575	94.7722	-17.1644	-16.1478	110.341	-46.2717	-45.6252	83.4007	-28.898	-40.9829	94.5124	-25.4196	-9.51477	101.79	-63.8996	-29.8063	79.7862	-44.2158	-32.8097	85.9506	-38.4114	-3.01256	140.769	-63.0718	3.18715	146.765	-65.4395	31.6409	157.768	-37.1635	14.9516	
